<?xml version="1.0" encoding="UTF-8" standalone="no"?>
<!-- Created with Inkscape (http://www.inkscape.org/) -->

<svg
   xmlns:dc="http://purl.org/dc/elements/1.1/"
   xmlns:cc="http://creativecommons.org/ns#"
   xmlns:rdf="http://www.w3.org/1999/02/22-rdf-syntax-ns#"
   xmlns:svg="http://www.w3.org/2000/svg"
   xmlns="http://www.w3.org/2000/svg"
   xmlns:sodipodi="http://sodipodi.sourceforge.net/DTD/sodipodi-0.dtd"
   xmlns:inkscape="http://www.inkscape.org/namespaces/inkscape"
   width="100px"
   height="50px"
   viewBox="0 0 100 50"
   version="1.1"
   id="SVGRoot"
   inkscape:version="0.92.4 (5da689c313, 2019-01-14)"
   sodipodi:docname="drawing.svg">
  <defs
     id="defs2640" />
  <sodipodi:namedview
     id="base"
     pagecolor="#ffffff"
     bordercolor="#666666"
     borderopacity="1.0"
     inkscape:pageopacity="0.0"
     inkscape:pageshadow="2"
     inkscape:zoom="5.12"
     inkscape:cx="79.060681"
     inkscape:cy="14.221223"
     inkscape:document-units="px"
     inkscape:current-layer="layer1"
     showgrid="true"
     inkscape:window-width="1366"
     inkscape:window-height="705"
     inkscape:window-x="-8"
     inkscape:window-y="-8"
     inkscape:window-maximized="1">
    <inkscape:grid
       type="xygrid"
       id="grid3401" />
  </sodipodi:namedview>
  <metadata
     id="metadata2643">
    <rdf:RDF>
      <cc:Work
         rdf:about="">
        <dc:format>image/svg+xml</dc:format>
        <dc:type
           rdf:resource="http://purl.org/dc/dcmitype/StillImage" />
        <dc:title></dc:title>
      </cc:Work>
    </rdf:RDF>
  </metadata>
  <g
     inkscape:label="Layer 1"
     inkscape:groupmode="layer"
     id="layer1">
    <g
       aria-label="Koalas4Life"
       transform="matrix(0.37034358,0,0,0.37034358,-46.037073,-12.727188)"
       style="font-style:normal;font-variant:normal;font-weight:normal;font-stretch:normal;font-size:40px;line-height:1.25;font-family:v;-inkscape-font-specification:v;letter-spacing:0px;word-spacing:0px;fill:#000000;fill-opacity:1;stroke:none;stroke-width:2.70019531"
       id="flowRoot815">
      <path
         d="m 137.15625,106.04883 -0.3125,-17.519533 8.92578,-0.234375 0.27344,11.757808 10.52734,-11.874996 9.27735,0.273438 -9.49219,11.328125 9.80469,17.988283 h -0.11719 q -4.66797,-0.23438 -6.99219,-0.23438 -1.09375,0 -3.55469,0.0781 -0.21484,0 -0.33203,0 -1.44531,-3.86719 -2.96875,-7.03125 -1.5039,-3.16406 -2.98828,-5.3711 l -4.80469,5 0.0781,6.83594 q -0.72266,-0.0195 -1.50391,-0.0391 -0.78125,0 -2.28515,0 -1.50391,0 -2.34375,0 -0.82032,0.0195 -1.58204,0.0391 z"
         style="fill:#618c74;fill-opacity:1;stroke-width:2.70019531"
         id="path3378"
         inkscape:connector-curvature="0" />
      <path
         d="m 180.73047,101.30273 -5.35156,0.50782 -1.09375,9.19922 q 1.44531,0.48828 3.08593,0.72265 1.66016,0.23438 3.63282,0.23438 h 0.52734 z m -2.63672,-5.371089 q 4.98047,0 8.26172,3.417968 3.30078,3.417971 3.30078,8.750001 0,4.21875 -3.24219,7.05078 -3.22265,2.83203 -7.96875,2.83203 -5.01953,0 -8.14453,-3.18359 -3.125,-3.1836 -3.125,-8.33985 0,-4.82421 2.94922,-7.675777 2.96875,-2.851562 7.96875,-2.851562 z"
         style="fill:#a1a1a1;fill-opacity:1;stroke-width:2.70019531"
         id="path3380"
         inkscape:connector-curvature="0" />
      <path
         d="m 199.85156,113.17773 5.58594,-0.41015 q 0.15625,-1.09375 0.21484,-1.9336 0.0781,-0.83984 0.0781,-1.69921 l -0.0195,-0.64454 q -1.48438,0.0977 -2.96875,0.3711 -1.46485,0.2539 -2.94922,0.70312 z m 6.83594,2.32422 q -1.71875,1.19141 -3.84766,1.83594 -2.10937,0.64453 -4.35547,0.64453 -3.125,0 -4.90234,-1.40625 -1.77734,-1.40625 -1.77734,-3.88672 0,-1.95312 0.85937,-3.76953 0.87891,-1.8164 2.08985,-2.42187 1.1914,-0.58594 4.64843,-1.15235 3.45703,-0.5664 8.04688,-0.89843 v -0.6836 q 0,-0.60547 -0.0391,-1.15234 -0.0391,-0.56641 -0.13672,-1.03516 -1.48438,-0.48828 -3.02735,-0.76172 -1.54297,-0.27343 -2.71484,-0.27343 -0.25391,0 -0.48828,0.0195 -0.21485,0 -0.44922,0.0195 l -0.0781,2.71484 q -1.25,-0.13672 -2.30468,-0.19531 -1.03516,-0.0781 -1.97266,-0.0781 -0.76172,0 -1.60156,0.0391 -0.83985,0.0195 -1.71875,0.0586 v -0.42969 q 0,-2.929684 3.125,-4.843747 3.14453,-1.914062 7.91015,-1.914062 5.07813,0 7.67579,1.992187 2.61718,1.972656 2.61718,5.839842 0,1.38672 -0.0977,3.33985 -0.0977,1.95312 -0.0977,2.51953 0,1.38672 0.19531,3.02734 0.19532,1.62109 0.78125,4.60938 -0.54687,-0.0391 -1.42578,-0.11719 -0.8789,-0.0586 -1.07422,-0.0586 -0.64453,0 -1.75781,0.15625 -1.11328,0.15625 -3.04687,0.48829 z"
         style="fill:#618c74;fill-opacity:1;stroke-width:2.70019531"
         id="path3382"
         inkscape:connector-curvature="0" />
      <path
         d="m 218.79687,116.61523 q 0.0781,-3.45703 0.11719,-7.1875 0.0391,-3.75 0.0391,-7.96875 0,-5.039058 -0.0195,-8.164058 -0.0195,-3.125 -0.0586,-6.113281 l 8.125,0.3125 -0.52734,19.316409 0.27343,10.23437 z"
         style="fill:#a1a1a1;fill-opacity:1;stroke-width:2.70019531"
         id="path3384"
         inkscape:connector-curvature="0" />
      <path
         d="m 237.74219,113.17773 5.58593,-0.41015 q 0.15625,-1.09375 0.21485,-1.9336 0.0781,-0.83984 0.0781,-1.69921 l -0.0195,-0.64454 q -1.48437,0.0977 -2.96875,0.3711 -1.46484,0.2539 -2.94922,0.70312 z m 6.83593,2.32422 q -1.71875,1.19141 -3.84765,1.83594 -2.10938,0.64453 -4.35547,0.64453 -3.125,0 -4.90234,-1.40625 -1.77735,-1.40625 -1.77735,-3.88672 0,-1.95312 0.85938,-3.76953 0.8789,-1.8164 2.08984,-2.42187 1.19141,-0.58594 4.64844,-1.15235 3.45703,-0.5664 8.04687,-0.89843 v -0.6836 q 0,-0.60547 -0.0391,-1.15234 -0.0391,-0.56641 -0.13672,-1.03516 -1.48437,-0.48828 -3.02734,-0.76172 -1.54297,-0.27343 -2.71485,-0.27343 -0.2539,0 -0.48828,0.0195 -0.21484,0 -0.44922,0.0195 l -0.0781,2.71484 q -1.25,-0.13672 -2.30469,-0.19531 -1.03515,-0.0781 -1.97265,-0.0781 -0.76172,0 -1.60157,0.0391 -0.83984,0.0195 -1.71875,0.0586 v -0.42969 q 0,-2.929684 3.125,-4.843747 3.14453,-1.914062 7.91016,-1.914062 5.07812,0 7.67578,1.992187 2.61719,1.972656 2.61719,5.839842 0,1.38672 -0.0977,3.33985 -0.0977,1.95312 -0.0977,2.51953 0,1.38672 0.19531,3.02734 0.19531,1.62109 0.78125,4.60938 -0.54688,-0.0391 -1.42578,-0.11719 -0.87891,-0.0586 -1.07422,-0.0586 -0.64453,0 -1.75781,0.15625 -1.11329,0.15625 -3.04688,0.48829 z"
         style="fill:#618c74;fill-opacity:1;stroke-width:2.70019531"
         id="path3386"
         inkscape:connector-curvature="0" />
      <path
         d="m 256.12109,111.08789 6.40625,0.48828 0.35157,1.44531 7.01171,0.11719 v -2.8125 q -8.41796,-0.44922 -11.21093,-2.1289 -2.79297,-1.67969 -2.79297,-5.70313 0,-3.574218 2.07031,-5.136718 2.07031,-1.582031 6.97266,-1.582031 4.66797,0 6.85547,1.445312 2.20703,1.425781 2.69531,4.746097 h -0.11719 q -3.88672,-0.15625 -5.87891,-0.15625 l -0.52734,-1.67969 h -6.23047 v 2.85156 q 8.10547,0.33203 11.05469,2.03125 2.94922,1.67969 2.94922,5.56641 0,3.47656 -2.61719,5.44922 -2.59766,1.95312 -7.26562,1.95312 -4.7461,0 -7.2461,-1.71875 -2.48047,-1.71875 -2.48047,-5.01953 z"
         style="fill:#a1a1a1;fill-opacity:1;stroke-width:2.70019531"
         id="path3388"
         inkscape:connector-curvature="0" />
      <path
         d="m 292.11719,103.37305 0.15625,-11.191409 q -1.85547,2.558593 -3.57422,5.3125 -1.71875,2.753909 -3.41797,5.878909 z m -2.59766,14.72656 0.11719,-7.8125 h -11.58203 q 0.0391,-1.36719 0.0586,-2.32422 0.0391,-0.97656 0.0391,-1.54297 0,-0.48828 -0.0195,-0.99609 0,-0.52735 -0.0391,-1.3086 2.77344,-4.589839 5.91797,-9.199214 3.14453,-4.609375 6.67969,-9.21875 1.95312,0.3125 3.96484,0.527343 2.01172,0.195313 4.21875,0.3125 l 0.0781,17.675781 h 4.53125 l -0.27343,5.99609 -4.45313,-0.0391 0.0781,7.92969 z"
         style="fill:#618c74;fill-opacity:1;stroke-width:2.70019531"
         id="path3390"
         inkscape:connector-curvature="0" />
      <path
         d="m 307.07812,101.77148 -0.11718,-14.042964 9.19922,-0.3125 -0.11719,22.988284 11.97265,-0.11719 -0.33203,7.24609 q -2.57812,-0.0976 -4.6289,-0.15625 -2.03125,-0.0391 -3.8086,-0.0391 h -1.60156 l -11.03516,-0.37109 z"
         style="fill:#baa460;fill-opacity:1;stroke-width:2.70019531"
         id="path3392"
         inkscape:connector-curvature="0" />
      <path
         d="m 334.98828,95.404297 q -1.77734,0 -3.125,-1.191406 -1.34766,-1.191407 -1.34766,-2.832032 0,-1.621093 1.3086,-2.949218 1.32812,-1.347657 2.65625,-1.347657 1.52344,0 2.89062,1.210938 1.38672,1.210937 1.38672,2.636719 0,1.738281 -1.07422,3.105468 -1.07422,1.367188 -2.69531,1.367188 z m -5.11719,21.484373 0.60547,-7.71484 v -0.11719 q 0.15625,-1.875 0.15625,-2.85156 0,-0.41016 -0.0195,-0.9961 0,-0.60546 -0.0195,-1.30859 l -0.15625,-5.917968 7.44141,-0.527344 -0.11719,9.003902 0.15625,10.91797 z"
         style="fill:#618c74;fill-opacity:1;stroke-width:2.70019531"
         id="path3394"
         inkscape:connector-curvature="0" />
      <path
         d="m 351.74609,117.72852 -8.51562,-0.58594 q 0.3125,-2.61719 0.44922,-5.3711 0.13672,-2.7539 0.13672,-7.32421 v -2.26563 h -2.71485 l -0.35156,-4.453124 3.10547,-0.07813 q 0.0195,-0.546875 0.0586,-1.621094 0.11719,-4.492188 0.91797,-5.820313 1.26953,-2.089843 3.55469,-3.261718 2.28515,-1.171875 5.11719,-1.171875 3.33984,0 4.92187,1.71875 1.60156,1.699218 1.60156,5.273437 0,0.605469 -0.0781,1.992188 0,0.136718 0,0.214843 l -6.25,-0.351562 -0.15625,-4.160156 -3.67188,0.195312 0.15625,7.148438 h 7.67578 l 0.27344,5.449224 h -6.11328 z"
         style="fill:#baa460;fill-opacity:1;stroke-width:2.70019531"
         id="path3396"
         inkscape:connector-curvature="0" />
      <path
         d="m 369.01172,104.85742 h 6.28906 l -0.37109,-4.08203 -5.91797,0.11719 z m 5.64453,5.95703 7.79297,-0.23437 q -0.54688,3.49609 -3.26172,5.46875 -2.71484,1.97265 -7.01172,1.97265 -5.44922,0 -8.63281,-2.89062 -3.16406,-2.91016 -3.16406,-7.83203 0,-5.15625 3.0664,-8.261721 3.06641,-3.105468 8.16406,-3.105468 5.17579,0 8.20313,3.203125 3.04687,3.183594 3.04687,8.671874 v 0.72266 h -7.96875 q -1.21093,0 -2.91015,0.0976 -1.67969,0.0977 -4.29688,0.3125 0,1.01563 0.0977,2.01172 0.0977,0.97656 0.27344,1.9336 l 6.36718,0.0977 z"
         style="fill:#618c74;fill-opacity:1;stroke-width:2.70019531"
         id="path3398"
         inkscape:connector-curvature="0" />
    </g>
  </g>
</svg>
