<?xml version="1.0" encoding="UTF-8" standalone="no"?>
<!-- Designed by Vexels.com - 2020 All Rights Reserved - https://vexels.com/terms-and-conditions/  -->

<svg
   xmlns:dc="http://purl.org/dc/elements/1.1/"
   xmlns:cc="http://creativecommons.org/ns#"
   xmlns:rdf="http://www.w3.org/1999/02/22-rdf-syntax-ns#"
   xmlns:svg="http://www.w3.org/2000/svg"
   xmlns="http://www.w3.org/2000/svg"
   xmlns:sodipodi="http://sodipodi.sourceforge.net/DTD/sodipodi-0.dtd"
   xmlns:inkscape="http://www.inkscape.org/namespaces/inkscape"
   version="1.1"
   id="Capa_1"
   x="0px"
   y="0px"
   viewBox="0 0 1200 1200"
   enable-background="new 0 0 1200 1200"
   xml:space="preserve"
   sodipodi:docname="mandala-cabeza-de-koala.svg"
   inkscape:version="0.92.4 (5da689c313, 2019-01-14)"><metadata
   id="metadata89"><rdf:RDF><cc:Work
       rdf:about=""><dc:format>image/svg+xml</dc:format><dc:type
         rdf:resource="http://purl.org/dc/dcmitype/StillImage" /><dc:title></dc:title></cc:Work></rdf:RDF></metadata><defs
   id="defs87" /><sodipodi:namedview
   pagecolor="#ffffff"
   bordercolor="#666666"
   borderopacity="1"
   objecttolerance="10"
   gridtolerance="10"
   guidetolerance="10"
   inkscape:pageopacity="0"
   inkscape:pageshadow="2"
   inkscape:window-width="1366"
   inkscape:window-height="705"
   id="namedview85"
   showgrid="false"
   inkscape:zoom="0.19666667"
   inkscape:cx="600"
   inkscape:cy="600"
   inkscape:window-x="-8"
   inkscape:window-y="-8"
   inkscape:window-maximized="1"
   inkscape:current-layer="Capa_1" />
<g
   id="g82"
   style="fill:#618c74;fill-opacity:1">
	<path
   fill="#30445F"
   d="M652.113,457.919c-16.511-2.624-31.947-3.961-46.122-4.396v36.262c8.861,0.263,17.789,0.859,26.756,1.776   C638.978,479.21,645.478,468.008,652.113,457.919z"
   id="path2"
   style="fill:#618c74;fill-opacity:1" />
	<path
   fill="#30445F"
   d="M617.266,441.647l11.085-35.352c-21.313-1.981-40.445-1.878-56.919-0.691l11.16,35.598   C593.259,440.815,604.854,440.898,617.266,441.647z"
   id="path4"
   style="fill:#618c74;fill-opacity:1" />
	<path
   fill="#30445F"
   d="M685.436,416.073c-15.623-3.898-30.485-6.581-44.531-8.374l-10.955,34.939   c9.564,0.904,19.555,2.224,29.938,4.033C668.423,434.872,677.043,424.727,685.436,416.073z"
   id="path6"
   style="fill:#618c74;fill-opacity:1" />
	<path
   fill="#30445F"
   d="M514.012,415.515c8.317,8.522,16.864,18.488,25.337,30.096c8.734-1.51,18.948-2.849,30.47-3.701   l-11.017-35.138C538.343,409.069,523.054,412.835,514.012,415.515z"
   id="path8"
   style="fill:#618c74;fill-opacity:1" />
	<path
   fill="#30445F"
   d="M671.112,359.227c-10.921-1.037-20.867-1.4-29.311-1.4c-0.3,0-0.596,0-0.893,0   c-9.468,0.027-18.936,0.033-28.405,0.042l25.076,32.914L671.112,359.227z"
   id="path10"
   style="fill:#618c74;fill-opacity:1" />
	<path
   fill="#30445F"
   d="M623.981,393.393L600,361.917l-23.449,30.778C590.719,391.937,606.606,392.003,623.981,393.393z"
   id="path12"
   style="fill:#618c74;fill-opacity:1" />
	<path
   fill="#30445F"
   d="M506.877,362.139c-14.897,2.546-30.832,6.475-46.87,12.436c9.567,4.897,23.185,13.17,38.492,26.337   L506.877,362.139z"
   id="path14"
   style="fill:#618c74;fill-opacity:1" />
	<path
   fill="#30445F"
   d="M287.82,378.44c21.695,44.076,33.58,88.473,39.368,115.014c11.914-32.28,28.948-59.666,51.171-81.825   c17.545-17.494,37.094-30.441,57.009-40.023c-7.515-12.965-28.845-46.787-64.184-80.008   c-41.024-38.565-110.087-84.188-205.388-82.701c-2.007,0.03-3.887,0.854-5.295,2.319c-1.423,1.483-2.18,3.427-2.131,5.47   c0.402,16.432,2.528,30.491,5.987,40.115C214.117,272.979,256.126,314.061,287.82,378.44z"
   id="path16"
   style="fill:#618c74;fill-opacity:1" />
	<path
   fill="#30445F"
   d="M518.605,366.58l-7.982,36.938c8.38-2.522,21.438-5.813,38.521-8.202L518.605,366.58z"
   id="path18"
   style="fill:#618c74;fill-opacity:1" />
	<path
   fill="#30445F"
   d="M587.496,357.869c-9.469-0.009-18.937-0.015-28.405-0.042c-0.294,0-0.593,0-0.89,0   c-8.446,0-18.393,0.363-29.317,1.4l33.534,31.557L587.496,357.869z"
   id="path20"
   style="fill:#618c74;fill-opacity:1" />
	<path
   fill="#30445F"
   d="M593.591,489.633v-36.249c-17.969,0.093-33.583,1.568-46.391,3.514   c6.734,10.154,13.339,21.428,19.669,33.899C575.668,490.067,584.583,489.677,593.591,489.633z"
   id="path22"
   style="fill:#618c74;fill-opacity:1" />
	<path
   fill="#30445F"
   d="M739.992,374.575c-16.039-5.961-31.975-9.89-46.872-12.436l8.379,38.775   C716.807,387.745,730.424,379.472,739.992,374.575z"
   id="path24"
   style="fill:#618c74;fill-opacity:1" />
	<path
   fill="#30445F"
   d="M721.732,657.675c-1.762,19.886,8.102,42.943,29.687,68.962c6.718,8.098,14.447,16.084,21.918,23.81   c2.231,2.306,4.465,4.626,6.692,6.956c72.544-4.01,111.133-44.272,119.206-53.707c-5.069-39.357-14.621-69.1-17.262-76.825   c-20.435-13.085-45.641-22.122-69.559-24.812c-3.023-0.339-6.048-0.505-9.066-0.574c4.429,7.537,6.841,16.12,6.841,25.092   c0,27.413-22.299,49.712-49.712,49.712C745.136,676.289,730.996,669.19,721.732,657.675z"
   id="path26"
   style="fill:#618c74;fill-opacity:1" />
	<path
   fill="#30445F"
   d="M872.812,493.454c5.788-26.541,17.673-70.938,39.368-115.014c31.699-64.394,73.693-105.499,123.474-121.667   c3.452-9.624,5.575-23.67,5.976-40.087c0.048-2.043-0.708-3.987-2.131-5.47c-1.408-1.465-3.288-2.289-5.292-2.319   C869.81,206.317,781.697,342.3,764.642,371.605c19.915,9.588,39.464,22.54,56.999,40.024   C843.864,433.788,860.898,461.174,872.812,493.454z"
   id="path28"
   style="fill:#618c74;fill-opacity:1" />
	<path
   fill="#30445F"
   d="M735.371,627.579c-3.911,4.32-6.932,8.892-9.193,13.677c5.834,13.631,19.309,22.633,34.298,22.633   c20.574,0,37.312-16.738,37.312-37.312c0-9.06-3.238-17.607-9.116-24.385c-7.559,0.909-14.892,2.645-21.779,5.121   c10.461,2.603,18.223,12.031,18.223,23.297c0,13.273-10.761,24.034-24.034,24.034c-13.274,0-24.034-10.761-24.034-24.034   c0-1.857,0.23-3.656,0.629-5.391C736.895,625.996,736.105,626.768,735.371,627.579z"
   id="path30"
   style="fill:#618c74;fill-opacity:1" />
	<path
   fill="#30445F"
   d="M689.549,404.328l-8.157-37.747l-31.627,29.762C662.419,398.226,675.693,400.825,689.549,404.328z"
   id="path32"
   style="fill:#618c74;fill-opacity:1" />
	<path
   fill="#30445F"
   d="M646.957,578.757c-26.768-22.766-67.144-22.766-93.917,0c-5.764,4.901-10.584,10.496-14.322,16.635   c-15.997,26.241-9.945,57.489-4.093,87.705l0.339,1.756c4.182,21.645,3.922,43.945,1.975,65.74   c0.675-0.351,1.343-0.714,2.054-1.006c8.446-3.454,18.073-2.119,27.131,3.745c8.355,5.413,15.324,14.186,19.626,24.697   c4.403,10.758,5.392,21.595,3.486,30.796c4.524,2.238,12.834,4.882,21.468,0.201c-1.963-9.243-0.991-20.161,3.442-30.996   c4.302-10.514,11.274-19.284,19.629-24.697c9.064-5.867,18.697-7.196,27.131-3.745c0.715,0.292,1.386,0.658,2.065,1.011   c-1.921-21.692-2.149-43.954,2.065-65.745l0.342-1.768c5.849-30.213,11.897-61.455-4.099-87.693   C657.541,589.253,652.721,583.658,646.957,578.757z"
   id="path34"
   style="fill:#618c74;fill-opacity:1" />
	<path
   fill="#30445F"
   d="M632.244,819.622c4.562,1.859,10.133,0.917,15.688-2.679c6.254-4.054,11.543-10.796,14.898-18.991   c2.233-5.46,3.377-11.056,3.431-16.341c-7.852-0.812-26.206,0.993-41.522,30.377C626.441,815.564,628.961,818.277,632.244,819.622z   "
   id="path36"
   style="fill:#618c74;fill-opacity:1" />
	<path
   fill="#30445F"
   d="M524.325,843.753c16.465,3.825,79.381,16.061,151.352-0.101c0.194-6.809-0.387-20.393-6.862-30.643   c-3.903,5.892-8.722,10.829-14.141,14.339c-5.758,3.733-11.749,5.628-17.519,5.628c-3.303,0-6.536-0.621-9.609-1.88   c-5.168-2.115-9.292-5.783-12.276-10.494c-4.966,2.424-9.944,3.407-14.628,3.407c-6.002,0-11.522-1.557-15.906-3.557   c-2.991,4.786-7.157,8.505-12.382,10.644c-3.136,1.284-6.403,1.898-9.697,1.898c-11.484,0-23.335-7.459-31.536-19.879   C524.676,823.406,524.123,837.003,524.325,843.753z"
   id="path38"
   style="fill:#618c74;fill-opacity:1" />
	<path
   fill="#30445F"
   d="M572.67,502.764c6.585,14.205,12.771,29.854,18.371,47.068c5.958-0.618,11.961-0.618,17.919,0   c5.511-16.94,11.587-32.367,18.055-46.391C608.607,501.783,590.395,501.556,572.67,502.764z"
   id="path40"
   style="fill:#618c74;fill-opacity:1" />
	<path
   fill="#30445F"
   d="M567.656,819.622c3.283-1.344,5.803-4.058,7.506-7.633c-15.299-29.342-33.688-31.153-41.522-30.363   c0.055,5.28,1.2,10.871,3.431,16.326C543.564,813.822,557.575,823.739,567.656,819.622z"
   id="path42"
   style="fill:#618c74;fill-opacity:1" />
	<path
   fill="#30445F"
   d="M387.586,602.058c-23.917,2.69-49.123,11.726-69.556,24.811c-2.635,7.724-12.173,37.479-17.235,76.845   c8.18,9.487,46.979,49.689,119.178,53.689c2.226-2.33,4.46-4.649,6.691-6.955c7.471-7.726,15.2-15.712,21.918-23.81   c21.586-26.019,31.449-49.076,29.687-68.962c-9.264,11.516-23.404,18.614-38.745,18.614c-27.413,0-49.712-22.299-49.712-49.712   c0-8.972,2.411-17.553,6.84-25.089C393.632,601.555,390.608,601.72,387.586,602.058z"
   id="path44"
   style="fill:#618c74;fill-opacity:1" />
	<path
   fill="#30445F"
   d="M803.59,922.009c14.693-1.424,28.255-4.32,41.12-8.779c7.077-7.325,13.525-15.157,19.329-23.501   c2.666-3.832,5.144-7.733,7.482-11.682c-17.248,8.127-35.758,13.556-55.238,16.31C812.936,903.921,808.657,913.194,803.59,922.009z   "
   id="path46"
   style="fill:#618c74;fill-opacity:1" />
	<path
   fill="#30445F"
   d="M770.932,962.525c20.052-8.479,37.843-18.83,53.393-31c-9.251,1.815-18.894,2.983-29.027,3.541   C788.179,945.177,779.968,954.434,770.932,962.525z"
   id="path48"
   style="fill:#618c74;fill-opacity:1" />
	<path
   fill="#30445F"
   d="M812.163,840.402c-1.768-33.809-24.098-56.893-47.738-81.333c-7.635-7.892-15.527-16.054-22.548-24.512   c-37.566-45.28-42.991-85.15-15.697-115.3c19.651-21.709,54.026-33.307,87.621-29.52c22.707,2.554,46.521,10.394,66.914,21.869   c-1.85-83.777-24.606-148.099-67.829-191.195c-17.505-17.453-37.2-30.132-57.225-39.329   c-14.145,5.729-91.972,42.56-134.354,170.917c12.153,3.088,23.725,8.843,33.685,17.313c6.769,5.755,12.448,12.361,16.878,19.626   c18.491,30.334,11.689,65.491,5.685,96.506l-0.342,1.765c-5.536,28.62-2.876,58.687,0.931,87.008   c1.26,8.378,0.172,17.597-3.117,26.479c15.159,16.864,13.227,43.551,12.769,48.11c2.641,37.645,0.334,85.894-40.211,126.509   c-7.26,7.273-16.012,12.584-25.595,15.824c33.685-1.086,64.419-4.722,92.184-10.863   C770.528,965.547,815.363,901.617,812.163,840.402z"
   id="path50"
   style="fill:#618c74;fill-opacity:1" />
	<path
   fill="#30445F"
   d="M820.231,881.246c22.061-3.803,42.663-11.431,61.416-22.684c4.987-11.069,8.903-22.419,11.935-33.867   c-20.974,12.107-44.071,19.964-68.906,23.455C824.536,859.253,822.995,870.367,820.231,881.246z"
   id="path52"
   style="fill:#618c74;fill-opacity:1" />
	<path
   fill="#30445F"
   d="M790.77,768.999c7.005,7.892,13.535,16.134,18.975,25.026c46.504-6.932,77.302-29.184,92.688-43.343   c-0.045-10.582-0.574-20.88-1.441-30.738C884.976,735.585,849.077,763.108,790.77,768.999z"
   id="path54"
   style="fill:#618c74;fill-opacity:1" />
	<path
   fill="#30445F"
   d="M1112.067,394.503c13.877-4.187,24.682-11.767,36.122-25.348c1.335-1.586,1.968-3.587,1.777-5.637   c-0.188-2.049-1.178-3.905-2.782-5.219c-13.771-11.298-28.509-17.259-46.376-18.764c-7.768-0.651-14.307-5.552-17.059-12.794   c-2.746-7.226-1.12-15.219,4.25-20.858c10.172-10.687,16.699-22.33,19.399-34.606c0.484-2.201,0.024-4.402-1.296-6.2   c-1.311-1.783-3.254-2.873-5.473-3.07c-26.824-2.364-51.708,1.463-74.596,11.356c10.061,21.806,39.908,102.486,2.224,229.073   C995.496,612.49,921.601,627.141,895.716,628.819c3.321,10.317,8.872,29.453,13.214,53.885c1.992-5.248,4.005-11.133,5.641-17.147   c1.992-7.326,7.847-12.827,15.282-14.353c7.344-1.517,14.807,1.193,19.469,7.063c18.582,23.401,38.438,29.153,55.413,31.693   c3.415,0.503,6.742-1.365,8.089-4.568c9.233-21.969,10.456-44.723,3.633-67.628c-2.155-7.247-0.091-14.961,5.395-20.129   c5.519-5.201,13.405-6.815,20.577-4.214c20.353,7.399,41.229,10.042,58.791,7.402c3.902-0.581,6.687-4.141,6.342-8.104   c-2.001-23.008-10.332-42.628-25.472-59.984c-5.274-6.049-6.373-14.298-2.87-21.531c3.566-7.359,10.871-11.683,19.033-11.292   c15.821,0.775,30.159-1.341,43.833-6.445c3.624-1.35,5.652-5.165,4.72-8.87c-5.585-22.172-19.16-40.509-40.343-54.498   c-6.394-4.226-9.675-11.574-8.564-19.178C1099.044,403.089,1104.475,396.798,1112.067,394.503z"
   id="path56"
   style="fill:#618c74;fill-opacity:1" />
	<path
   fill="#30445F"
   d="M824.177,835.702c26.808-3.945,51.414-13.329,73.257-27.988c2.585-13.56,4.045-27.125,4.656-40.4   c-17.638,14.125-46.321,31.467-86.125,38.303C820.204,814.798,823.118,824.74,824.177,835.702z"
   id="path58"
   style="fill:#618c74;fill-opacity:1" />
	<path
   fill="#30445F"
   d="M675.832,856.344c-11.958,2.592-23.615,4.428-34.846,5.691c2.628,18.782,6.362,72.492-26.548,118.445   c9.208-2.428,17.594-7.135,24.373-13.926C673.434,931.873,677.627,891.888,675.832,856.344z"
   id="path60"
   style="fill:#618c74;fill-opacity:1" />
	<path
   fill="#30445F"
   d="M375.324,848.15c-24.827-3.49-47.915-11.343-68.883-23.442c3.028,11.446,6.938,22.794,11.919,33.858   c18.753,11.251,39.353,18.878,61.408,22.68C377.005,870.367,375.464,859.253,375.324,848.15z"
   id="path62"
   style="fill:#618c74;fill-opacity:1" />
	<path
   fill="#30445F"
   d="M409.23,768.999c-58.27-5.887-94.16-33.38-110.192-49.024c-0.866,9.859-1.393,20.158-1.438,30.74   c15.398,14.16,46.185,36.384,92.654,43.311C395.695,785.134,402.225,776.891,409.23,768.999z"
   id="path64"
   style="fill:#618c74;fill-opacity:1" />
	<path
   fill="#30445F"
   d="M433.099,607.315c-6.887-2.475-14.219-4.209-21.776-5.118c-5.875,6.777-9.112,15.322-9.112,24.38   c0,20.574,16.738,37.312,37.312,37.312c14.988,0,28.465-9.002,34.298-22.632c-2.261-4.784-5.281-9.356-9.193-13.675   c-0.733-0.811-1.524-1.582-2.305-2.359c0.397,1.734,0.628,3.533,0.628,5.388c0,13.273-10.761,24.034-24.035,24.034   c-13.273,0-24.034-10.761-24.034-24.034C414.884,619.346,422.643,609.92,433.099,607.315z"
   id="path66"
   style="fill:#618c74;fill-opacity:1" />
	<path
   fill="#30445F"
   d="M384.035,805.617c-39.777-6.832-68.451-24.156-86.092-38.276c0.611,13.273,2.068,26.835,4.65,40.391   c21.836,14.649,46.433,24.026,73.23,27.97C376.882,824.74,379.796,814.798,384.035,805.617z"
   id="path68"
   style="fill:#618c74;fill-opacity:1" />
	<path
   fill="#30445F"
   d="M171.742,502.437c-37.691-126.61-7.826-207.296,2.23-229.085c-22.888-9.895-47.773-13.718-74.601-11.344   c-2.219,0.197-4.163,1.287-5.473,3.07c-1.32,1.798-1.78,3.999-1.296,6.2c2.7,12.276,9.227,23.919,19.399,34.606   c5.371,5.64,6.996,13.632,4.25,20.858c-2.752,7.241-9.291,12.143-17.062,12.794c-17.864,1.505-32.602,7.465-46.373,18.76   c-1.604,1.317-2.594,3.173-2.782,5.222c-0.191,2.05,0.442,4.051,1.78,5.64c11.437,13.578,22.242,21.158,36.119,25.345   c7.593,2.295,13.024,8.586,14.168,16.417c1.111,7.605-2.171,14.952-8.564,19.178c-21.182,13.989-34.757,32.326-40.342,54.498   c-0.932,3.705,1.096,7.52,4.72,8.87c13.675,5.104,28.003,7.217,43.833,6.445c8.195-0.384,15.47,3.933,19.033,11.292   c3.503,7.232,2.404,15.482-2.867,21.531c-15.143,17.356-23.474,36.976-25.475,59.984c-0.345,3.963,2.44,7.523,6.342,8.104   c17.553,2.625,38.438-0.003,58.791-7.402c7.169-2.601,15.055-0.993,20.577,4.214c5.486,5.168,7.55,12.881,5.395,20.126   c-6.824,22.908-5.601,45.661,3.633,67.628c1.347,3.203,4.674,5.062,8.089,4.571c16.974-2.54,36.831-8.292,55.413-31.693   c4.662-5.87,12.118-8.589,19.469-7.063c7.435,1.526,13.29,7.026,15.282,14.35c1.638,6.025,3.65,11.911,5.641,17.156   c4.343-24.438,9.896-43.578,13.217-53.894C278.402,627.134,204.502,612.487,171.742,502.437z"
   id="path70"
   style="fill:#618c74;fill-opacity:1" />
	<path
   fill="#30445F"
   d="M404.702,935.065c-10.133-0.558-19.775-1.726-29.025-3.541c15.549,12.169,33.339,22.519,53.389,30.997   C420.03,954.431,411.821,945.176,404.702,935.065z"
   id="path72"
   style="fill:#618c74;fill-opacity:1" />
	<path
   fill="#30445F"
   d="M512.202,848.809c-0.456-4.546-2.386-31.168,12.7-48.038c-3.312-8.906-4.409-18.154-3.145-26.556   c3.829-28.473,6.513-58.64,1.031-87.006l-0.339-1.753c-6.006-31.018-12.815-66.178,5.679-96.518   c4.429-7.266,10.108-13.871,16.877-19.626c9.961-8.469,21.534-14.224,33.688-17.313   c-42.373-128.33-120.177-165.173-134.358-170.916c-20.023,9.197-39.717,21.875-57.221,39.328   c-43.223,43.095-65.979,107.418-67.829,191.195c20.395-11.474,44.208-19.315,66.914-21.87c33.576-3.793,67.973,7.814,87.621,29.523   c27.295,30.146,21.87,70.017-15.697,115.297c-7.02,8.458-14.913,16.62-22.548,24.512c-23.641,24.44-45.97,47.523-47.738,81.333   c-3.201,61.214,41.632,125.143,97.986,139.874c27.765,6.142,58.501,9.778,92.187,10.864c-9.583-3.24-18.335-8.551-25.595-15.824   C511.869,934.706,509.564,886.454,512.202,848.809z"
   id="path74"
   style="fill:#618c74;fill-opacity:1" />
	<path
   fill="#30445F"
   d="M383.716,894.357c-19.478-2.754-37.985-8.181-55.235-16.309c2.348,3.967,4.837,7.885,7.515,11.732   c5.795,8.325,12.232,16.139,19.296,23.45c12.866,4.459,26.427,7.355,41.117,8.779C391.343,913.194,387.064,903.921,383.716,894.357   z"
   id="path76"
   style="fill:#618c74;fill-opacity:1" />
	<path
   fill="#30445F"
   d="M558.954,862.118c-15.599-1.707-27.624-4.037-34.796-5.647c-1.777,35.514,2.449,75.448,37.031,110.084   c6.764,6.776,15.128,11.478,24.312,13.911C552.65,934.579,556.328,880.969,558.954,862.118z"
   id="path78"
   style="fill:#618c74;fill-opacity:1" />
	<path
   fill="#30445F"
   d="M628.583,863.215c-21.306,1.656-40.747,1.295-57.221,0.051c-2.34,17.265-6.34,72.274,28.612,115.772   C634.962,935.5,630.922,880.426,628.583,863.215z"
   id="path80"
   style="fill:#618c74;fill-opacity:1" />
</g>
</svg>